<svg width="81" height="62" viewBox="0 0 81 62" fill="none" xmlns="http://www.w3.org/2000/svg">
<path d="M0.56 60V56.16H10.928V6.24H0.56V2.4H28.592V12.256H29.104C31.92 7.47733 34.9067 4.40533 38.064 3.04C41.2213 1.58933 44.0373 0.863998 46.512 0.863998C50.4373 0.863998 53.4667 1.888 55.6 3.936C57.7333 5.89866 58.8 8.75733 58.8 12.512C58.8 16.1813 57.8613 18.8693 55.984 20.576C54.192 22.2827 51.9307 23.136 49.2 23.136C46.7253 23.136 44.464 22.4107 42.416 20.96C40.4533 19.5093 39.472 17.3333 39.472 14.432C39.472 12.7253 39.728 11.488 40.24 10.72C40.8373 9.952 41.136 9.35466 41.136 8.928C41.136 8.75733 41.0507 8.62933 40.88 8.544C40.7947 8.37333 40.5387 8.288 40.112 8.288C38.7467 8.288 37.1253 9.184 35.248 10.976C33.456 12.768 31.8773 15.1147 30.512 18.016C29.232 20.9173 28.592 24.0747 28.592 27.488V56.16H36.912V60H0.56ZM69.536 61.664C66.464 61.664 63.8187 60.5973 61.6 58.464C59.4667 56.2453 58.4 53.6 58.4 50.528C58.4 47.456 59.4667 44.8533 61.6 42.72C63.8187 40.5013 66.464 39.392 69.536 39.392C72.608 39.392 75.2107 40.5013 77.344 42.72C79.5627 44.8533 80.672 47.456 80.672 50.528C80.672 53.6 79.5627 56.2453 77.344 58.464C75.2107 60.5973 72.608 61.664 69.536 61.664Z" fill="white"/>
</svg>
