<svg width="59" height="60" viewBox="0 0 59 60" fill="none" xmlns="http://www.w3.org/2000/svg">
<path d="M0.56 60V56.16H10.928V6.24H0.56V2.4H28.592V12.256H29.104C31.92 7.47733 34.9067 4.40533 38.064 3.04C41.2213 1.58933 44.0373 0.863998 46.512 0.863998C50.4373 0.863998 53.4667 1.888 55.6 3.936C57.7333 5.89866 58.8 8.75733 58.8 12.512C58.8 16.1813 57.8613 18.8693 55.984 20.576C54.192 22.2827 51.9307 23.136 49.2 23.136C46.7253 23.136 44.464 22.4107 42.416 20.96C40.4533 19.5093 39.472 17.3333 39.472 14.432C39.472 12.7253 39.728 11.488 40.24 10.72C40.8373 9.952 41.136 9.35466 41.136 8.928C41.136 8.75733 41.0507 8.62933 40.88 8.544C40.7947 8.37333 40.5387 8.288 40.112 8.288C38.7467 8.288 37.1253 9.184 35.248 10.976C33.456 12.768 31.8773 15.1147 30.512 18.016C29.232 20.9173 28.592 24.0747 28.592 27.488V56.16H36.912V60H0.56Z" fill="white"/>
</svg>
